<?xml version="1.0" encoding="UTF-8"?>
<svg id="Layer_1" data-name="Layer 1" xmlns="http://www.w3.org/2000/svg" version="1.1" viewBox="0 0 927.6 1076.4">
  <defs>
    <style>
      .cls-1, .cls-2, .cls-3, .cls-4, .cls-5 {
        stroke-width: 0px;
      }

      .cls-1, .cls-3 {
        fill: #bfa473;
      }

      .cls-2 {
        fill: #000;
      }

      .cls-3, .cls-6 {
        display: none;
      }

      .cls-4 {
        fill: #fff;
      }

      .cls-5 {
        fill: #ffecd3;
      }
    </style>
  </defs>
  <g id="blanco" class="cls-6">
    <path class="cls-4" d="M688.3,104.6l-37.7.3-29.3,35.3c-43,51.7-91.8,110.1-112.8,135.2-10.1,12.1-27.9,33.4-39.4,47.2-11.5,13.9-21.3,25.3-21.8,25.3s-7.9-10.4-16.6-23c-8.7-12.7-23.5-34.2-32.8-47.8-30.7-44.5-56.5-82-85.6-124.7-15.8-23.1-29.7-43.2-30.9-44.8l-2.2-2.7h-114.8l-.8,2.2c-.4,1.3-.7,142.5-.7,313.8v311.5h239l.6-19.5c.4-11.4,1.3-23,2.3-28,9.8-50.7,11.4-69.5,7.2-83.5-2.5-8.1-11.8-17.6-22.5-22.9-4.7-2.4-9.7-4.7-11.1-5.1s-6.1-2.5-10.5-4.6c-4.4-2-13.9-6.4-21.2-9.7-13-5.9-16-7.9-29.8-19.6-16-13.7-29.8-31.8-42-55.1-3.7-7.2-7.9-14.5-9.2-16.3-2.8-3.7-8.4-15.7-11.9-25.3-6-16.6-8.2-26.3-9.8-43.4-2.6-29.3-2.9-35.5-1.3-35.5s4.6,3.7,8.3,8.2c9.5,11.5,22.9,24.4,28.9,27.8,6.2,3.5,26.6,9,33.7,9s9.9-.5,15.5-1.2c9-1,11.6-.9,20.5.6,8.8,1.6,12.1,2.8,22.2,8,13.7,7,23.4,15.3,31,26.4,5.9,8.6,16.3,20.5,24.8,28.2,3.7,3.3,8.4,8.4,10.5,11.3,2,2.9,4.2,5.5,4.8,5.9.5.4,3.5.8,6.6.8,5.3,0,5.6-.2,7.1-3.3,2.4-4.9,16.8-21.4,25.5-29,7.3-6.4,17.1-12.8,32.3-20.9,11.2-6,22.1-9.7,32.1-10.8,5.2-.6,13-1.5,17.4-2,5.4-.7,10.1-.6,14.5.1,7.2,1.2,28.1.5,36.9-1.2,5.7-1.2,22.8-7.7,32.1-12.4,7-3.5,23.8-14.7,29.5-19.7,2.5-2.2,5-3.6,5.6-3.2,1.9,1.1.4,15-2.5,22.9-10.5,29.5-26.7,64.2-36.4,78-9.1,13-32.5,38.6-40.9,44.8-11.1,8.3-32.7,22.3-39.8,25.9-12.1,6.2-44,19.8-49.7,21.2-4,.9-21,9-23.7,11.3-2.1,1.8-2.5,3.1-3.3,13.4-1.5,18.2.6,30.9,9.2,55.6,3.2,9.1,6.5,15.9,12,24.8,2,3.3,7.9,14.1,12.9,24,5.1,9.9,10.3,19.4,11.7,21.2l2.5,3.3,114.7-.2,114.7-.3V104.4h-19c-10.4,0-35.9,0-56.6.2h0Z"/>
    <path class="cls-4" d="M611.3,759.9c-6,1-9.9,3.1-13.6,7.4-4.2,4.7-5.6,9.6-5.7,19.1,0,11.9,1.1,14.4,13.5,26.8s11.1,11.8,11.5,12.9c1.8,5.7-9.1,8.1-15.6,3.3-3.8-2.8-5.8-3.1-8.5-1.1-1.5,1.1-1.9,2.9-2.1,11-.2,7.4,0,10,1.2,11.1,2.7,2.6,9.5,3.7,21.4,3.3,10.4-.3,12-.6,16.8-3.2,9.3-5.2,13.4-14.7,11.9-27.7-1-8-3.5-11.8-14.9-23-8.1-7.9-10.8-11.3-10.8-13.1,0-4.1,2.2-5.2,9.3-4.4,7.9.9,9.8.9,10.7,0,1.4-1.6,2-18,.7-19.7-2.4-3.2-14.7-4.5-25.8-2.6h0Z"/>
    <path class="cls-4" d="M177,762.2c-1.6,1.6-2.7,4.4-3.5,9.3-.7,3.8-2.1,11.6-3.1,17.4-5.8,31.6-10,61.3-8.9,62.6,1.5,1.9,20.2,2,21.6,0,.6-.6,1.3-3.6,1.6-6.6.4-3,1.1-5.9,1.7-6.5,1.1-1.1,11.3-1.1,13,0,.5.3,1.2,3.4,1.5,7,.9,7.7.8,7.7,13.9,7.3,11.7-.4,11.6-.3,8.8-15.5-1.2-6.5-2.4-14.3-2.7-17.3-.6-5.2-4.5-28.7-8.1-48.2-.9-4.8-2.1-9.2-2.8-9.6-.6-.5-7.7-1.2-15.9-1.6-14.5-.7-14.8-.6-17.1,1.7h0ZM196.2,799.9c1.9,12.8,1.4,14.5-3.9,14.5s-3.4-.3-3.7-3.2,2-17.7,3.4-22.7c1.2-3.7,2.7.3,4.2,11.4Z"/>
    <path class="cls-4" d="M231.6,761.5c-1.5,1.1-1.7,4.6-1.6,38.1.2,45.2.2,45.4,12.9,51.4,5.3,2.6,7.1,2.9,15.6,2.9s11.2-.6,14.4-1.7c6.5-2.2,12.8-8.5,14.3-14.3,1.6-5.8,2.3-74.5.8-76s-5.6-1-11.3-1-10.5.9-10.9,2.6c-.4,1.5-.7,16.5-.8,33.4-.1,28.8-.2,30.9-2,32.9-2.5,2.7-7.2,2.8-8.6,0-.7-1.4-1-12.9-.9-34.6,0-17.9-.3-33-.7-33.4-1.6-1.4-19.4-1.7-21.2-.4h0Z"/>
    <path class="cls-4" d="M299.1,761.1c-1.5,1.2-1.7,5.7-1.9,45.3-.1,24.2.1,44.6.5,45.3,1.1,1.7,41.8,1.7,43.5,0s1.2-4.5,1.2-9.9c0-11.2-.6-11.9-10.4-11.9s-11.1,1.9-11.2-36.2c-.1-26.1-.4-32.2-1.5-32.9-2.2-1.4-18.3-1.1-20.2.3h0Z"/>
    <path class="cls-4" d="M360.8,761.4c-3,2.1-4.9,10.5-12,55.5-1.4,9.1-3.3,20.3-4,24.9-1.9,11-1.8,11.1,10.5,11.1s10.2-.4,10.8-.8c.7-.5,1.6-3.6,1.9-7.1.8-7.3,2.2-8.4,10-7.3,5.3.8,6.1,2,6.3,9.3.1,5.4,1.5,6,12.6,5.7,7.8-.2,10-.6,10.8-2,.8-1.1.5-5.1-1.1-14-1.2-6.7-2.4-15.2-2.8-18.8-.3-3.6-1.2-9.7-2-13.5-.8-3.9-2.8-14.6-4.4-23.9-1.5-9.3-3.4-17.4-4.2-18.1-.8-.8-6.4-1.5-15.8-1.9-12-.5-14.9-.4-16.6.9h0ZM379.5,801.1c1.5,12.3.8,14.1-4.5,13.6-2.7-.3-3.1-.7-3.4-3.6-.4-3.7,2.5-19.6,4.1-22.7.7-1.3,1.2-1.3,1.7,0,.4,1.1,1.3,6.8,2.1,12.7h0Z"/>
    <path class="cls-4" d="M443.6,760.8c-1.1.7-1.4,9.1-1.3,45.6.1,24.7.4,45.2.7,45.7.6.9,18.4,1.1,20.8.2,1.4-.5,1.6-2.9,1.6-16.3s.3-18,.6-20.8l.7-5.3,5.9,10.5c5.1,8.9,6.4,10.5,8.4,10.5s2.8-.4,9.5-15.9c1.1-2.4,2.2-4.1,2.6-3.7s.6,9.3.5,20c-.2,15.5.1,19.6,1.2,20.5.9.8,5,1.1,11.7.9l10.4-.3.5-45c.3-24.9,0-45.6-.4-46.3-.9-1.3-19.2-1.7-21.3-.4-.7.4-3.9,6.5-7.2,13.6s-6.4,13.3-6.9,13.8c-1.6,1.6-3.2,0-5.5-5.1-1.1-2.5-3.1-6.3-4.4-8.3-1.2-2.1-3-5.7-3.9-8-.9-2.4-2.4-4.9-3.2-5.6-1.8-1.4-18.9-1.7-21-.3h0Z"/>
    <path class="cls-4" d="M529.1,760.8c-.6.2-1.5.9-1.9,1.5-1.2,1.7-.9,70.5.3,75.5,1.4,6.1,3.9,9.2,10.1,12.7,5.1,2.8,5.8,2.9,17.8,2.9s17.5-1.2,23.2-7.2c6-6.2,6.2-7.6,6.6-45.6.2-19.1,0-35.8-.2-37.2-.6-2.5-.8-2.5-11.1-2.5s-10.5.2-11.5,1.9c-.6,1.2-1,13.6-1,33.3s-.2,31.7-1.6,33.6c-2.2,3.1-6.9,3-9-.3-1.5-2.3-1.6-5.7-.9-34.3.6-26.2.5-32-.6-32.9-1.4-1.1-17.6-2.2-20.2-1.4h0Z"/>
    <path class="cls-4" d="M649.1,761.7c-1.5,1.6-1.7,6.2-1.7,45.1s.2,43.7,1.1,44.7c1.6,2,45.1,2.1,46.7,0,1.6-1.9,1.9-17.7.3-18.6-.7-.5-5.7-1.1-11.2-1.4s-10.6-1.1-11.4-1.7c-1.8-1.5-2-11.1-.3-12.8s4.4-1.2,9.6-1.2c11.9,0,12.2-.3,12.2-10.4s-.4-8.7-1.3-9.5c-.8-.6-5.2-1.1-9.8-1.2-10.2,0-11.9-1.2-11.9-7.5s1.5-6.4,12.7-6.4,9.3-.4,10.1-1.2c1.5-1.5,1.6-17.4,0-18.3-.6-.4-10.6-.9-22.3-1.1-19.7-.4-21.4-.3-22.9,1.4h.1Z"/>
    <path class="cls-4" d="M705.8,761.7c-1.1,1.1-1.4,8.1-1.4,38,0,44.8.2,45.1,11.5,51.1,4.6,2.4,5.9,2.6,17.5,2.6s17.5-1.2,23.2-7.2c5.6-5.8,5.9-8.6,6.2-47.3.2-22.1,0-36-.7-36.8-1.3-1.6-19.8-1.7-21.5,0s-1.2,9.5-1.2,32.6-.3,34.4-3.4,36.4c-2.2,1.5-5.6.8-7.2-1.7-1.4-2.1-1.5-6.4-1.3-34.5.2-19.2,0-32.4-.7-32.9-.5-.5-5.1-1.1-10.3-1.3-7.1-.3-9.7,0-10.7,1h0Z"/>
    <path class="cls-4" d="M257.9,897.8c-7.8,1.9-11.5,7.3-11.5,16.9s2.8,11.6,15,21.3c5.7,4.5,9.8,8.5,11,11,5.1,9.8-.5,21.9-10.1,21.9s-11.8-4.3-12.9-12.9c-.7-6.3-3-6.7-3-.5,0,16.2,18.6,22.3,28.3,9.2,2.2-2.9,3.4-11.8,2.3-16.3-.9-3.6-6.5-9.5-16.1-17-9.8-7.6-11.9-11.3-11.3-19.2.8-9.3,8.1-14.3,16.1-11,4.6,2,6.9,5.6,7.5,11.8.5,5.1,1.6,6.9,3.4,5.1s-1-11.9-4.4-15.7c-2.4-2.8-8.5-5.8-10.8-5.4-.3,0-1.9.4-3.5.8h0Z"/>
    <path class="cls-4" d="M381.9,898.4c-4.6,1.6-8.1,5.5-9.6,10.5-.6,2.2-.9,12.9-.7,28.2.3,27.5.3,27.4,7.9,32.6,2.8,2,4.4,2.3,9.2,2,6.5-.5,10.1-2.6,13.2-7.9,1.8-3,2-5.6,2.4-23.2.4-24-.3-31.5-3.2-35.8-4.6-6.7-11.8-9.1-19.2-6.4h0ZM394.7,902.1c1,.5,2.7,2.4,3.7,4.1,1.8,2.9,2,5.2,2,28.6s-.1,25.6-2,28.6c-2.6,4.1-6.8,5.9-12.6,5.2-5.4-.6-9-3.5-10.4-8.6-1.3-4.7-1.3-45.5,0-50.2,2.3-8.1,11.5-11.8,19.3-7.7h0Z"/>
    <path class="cls-4" d="M741.1,898.3c-2,.8-4.5,2-5.4,2.7-4.1,3.5-5.7,14.7-2.9,21.2,1.4,3.4,6.3,8.3,16.2,16,9.6,7.5,12.5,14.9,9,23.1-2.9,6.9-10.7,9.6-17.5,6.1-3.1-1.6-6.1-6.9-6.1-10.8s-.3-3.2-.6-4.1c-1.2-3.1-2.4-1.5-2.4,3.1,0,9.5,6.6,16.3,15.6,16.3s18.5-13.6,14.3-24.7c-1.4-3.8-5.9-8.3-15.2-15.5-9.6-7.3-11.7-10.5-11.7-17.6s1.9-10.5,6.4-12.6c4.2-2,5.7-2,10.1-.2,4.4,1.9,6.6,5.4,7.4,11.8.3,3,1.2,5.3,2,5.6,2.2.7,1-11.2-1.5-14.5-4.5-6-11.1-8.2-17.7-5.9h0Z"/>
    <path class="cls-4" d="M172.4,934.3c0,32,.2,36.6,1.5,36.6s1.5-4.4,1.3-36.2c-.2-27.8-.6-36.2-1.5-36.6-1-.3-1.3,7.4-1.3,36.2Z"/>
    <path class="cls-4" d="M199.9,899.2c-.3.6-.4,17-.3,36.2l.3,35,14.8.3c11.7.2,14.8,0,14.5-1s-4-1.4-13.7-1.6l-13.2-.3.3-15.7.3-15.7,8.8-.3c6.8-.2,8.7-.6,8.7-1.7s-1.8-1.5-9-1.5h-9.1l.3-15.8.3-15.7,13.3-.3c10.8-.2,13.2-.5,13.2-1.7s-2.4-1.5-14.5-1.5-14.7.3-15,1.3h0Z"/>
    <path class="cls-4" d="M347,898.6c-.3.3-.6,13.8-.6,30s-.3,30.1-1.4,32.7c-4.3,10.2-17.9,10.2-22.2,0-.8-1.9-1.4-6.3-1.4-10s-.3-6.5-1.2-6.2-1.4,2.9-1.6,7.4c-.2,5.6.2,7.7,2,11.3,5.6,10.9,21,10.9,26.6,0,2.1-4.3,2.2-5.3,2.2-34.7s-.4-32.6-2.4-30.6h0Z"/>
    <path class="cls-4" d="M434.4,900.1c-.5,1.3-2.3,8.4-3.9,15.8-1.7,7.4-5,22.7-7.5,33.9-2.6,11.2-4.6,20.5-4.6,20.7s.6.4,1.4.4,2-2.4,3.1-7.5l1.7-7.5h23.6l1.3,7.1c1.1,6.1,2.9,9.3,4.3,7.8.4-.4-4.1-20.8-13.1-59.8-2.8-12.5-4.4-15.3-6.3-10.9ZM439.3,916.6c1.2,6,3.4,16.2,5,22.8s2.6,12.3,2.4,12.7c-.2.5-4.9.8-10.3.8s-10.1-.3-10.3-.8c-.3-.4,1-7.7,2.9-16.2s4.1-18.8,5-22.8c.8-3.9,1.9-7.2,2.3-7.2s1.8,4.8,3,10.7Z"/>
    <path class="cls-4" d="M471.1,898.5c-.4.4-.7,16.9-.7,36.6,0,31.2.2,35.8,1.5,35.8s1.5-4.2,1.5-31.7.4-31.3.9-30.8c.5.6,5.7,13.4,11.5,28.5,12.9,33.3,13.2,34,15.1,34s1.5-4.6,1.5-36.6-.3-36.5-1.2-36.2c-1,.4-1.4,8.1-1.8,32.4-.4,27.5-.7,31.5-1.8,28.9-.7-1.7-4.9-12.2-9.2-23.5-13.4-34.4-14.6-37.4-15.6-37.7-.6-.2-1.3,0-1.7.3h0Z"/>
    <path class="cls-4" d="M554.4,934.4c0,28.9.3,36.6,1.3,36.3.9-.4,1.3-5,1.5-17.7l.2-17.2,6.3.3,6.2.3,6.3,17.2c4.1,11.1,6.9,17.3,7.8,17.3s1.4,0,1.4-.3-2.1-5.9-4.6-12.8c-8.4-22.9-8-21.2-5.9-22.3,10-5.9,13.2-18.4,7.6-29.5-3.2-6.2-6.1-7.5-17.8-7.9l-10.3-.4v36.7h0ZM576.1,903.5c4.1,3,5.7,7.1,5.7,13.9,0,11.5-4.3,15.5-16.9,15.5h-7.5v-32.2l7.9.3c6.1.3,8.6.9,10.8,2.5Z"/>
    <path class="cls-4" d="M612.4,900.1c-.5,1.3-2.5,9.5-4.5,18.3-1.9,8.8-5.3,24.1-7.5,33.9s-4,18.1-4,18.3.6.3,1.4.3c1.6,0,1.9-.8,3.6-9.3l1.1-5.7h23.7l1.3,7.1c1.1,6.3,2.9,9.3,4.5,7.7.2-.3-.7-5.2-2-10.9-1.4-5.7-4.8-20.5-7.6-32.9-6.4-28.5-6.3-28.3-7.8-28.8s-1.6.7-2.2,2h0ZM619.8,928.1c2.7,12.3,4.9,22.7,5,23.3s-4,1-10.4,1-10.5-.3-10.4-1.5c0-1.3,7.6-36.7,9.1-42.8.3-1.2.8-2.2,1.2-2.2s2.8,10,5.5,22.2h0Z"/>
    <path class="cls-4" d="M648.9,900.1c-.3,1.3-.4,17.6-.3,36.3.3,29.4.5,34,1.8,34s1.6-4.4,2-31.3l.5-31.4,6,14.2c3.3,7.8,6.5,14.2,7,14.2,1.3,0,2.5-2.2,8.8-17.2l5.2-12.5.3,32.2c.2,27.9.4,32.3,1.7,32.3s1.5-4.6,1.3-36.3c-.3-29.5-.5-36.2-1.6-36.2s-4,6.3-7.7,15c-3.5,8.2-6.7,15.6-7.2,16.3-.6.9-3.1-4-7.8-14.9-3.9-8.9-7.5-16.4-8.2-16.6-.7-.3-1.5.6-1.8,1.9Z"/>
    <path class="cls-4" d="M708,898.6c-.3.3-.6,16.8-.6,36.5,0,31.2.2,35.8,1.5,35.8s1.5-4.7,1.5-35.9-.4-36.2-.9-36.5c-.4-.3-1.1-.3-1.5,0h0Z"/>
  </g>
  <g id="negro" class="cls-6">
    <path class="cls-2" d="M689.5,104.6l-37.7.3-29.3,35.3c-43,51.7-91.8,110.1-112.8,135.2-10.1,12.1-27.9,33.4-39.4,47.2-11.5,13.9-21.3,25.3-21.8,25.3s-7.9-10.4-16.6-23c-8.7-12.7-23.5-34.2-32.8-47.8-30.7-44.5-56.5-82-85.6-124.7-15.8-23.1-29.7-43.2-30.9-44.8l-2.2-2.7h-114.8l-.8,2.2c-.4,1.3-.7,142.5-.7,313.8v311.5h239l.6-19.5c.4-11.4,1.3-23,2.3-28,9.8-50.7,11.4-69.5,7.2-83.5-2.5-8.1-11.8-17.6-22.5-22.9-4.7-2.4-9.7-4.7-11.1-5.1s-6.1-2.5-10.5-4.6c-4.4-2-13.9-6.4-21.2-9.7-13-5.9-16-7.9-29.8-19.6-16-13.7-29.8-31.8-42-55.1-3.7-7.2-7.9-14.5-9.2-16.3-2.8-3.7-8.4-15.7-11.9-25.3-6-16.6-8.2-26.3-9.8-43.4-2.6-29.3-2.9-35.5-1.3-35.5s4.6,3.7,8.3,8.2c9.5,11.5,22.9,24.4,28.9,27.8,6.2,3.5,26.6,9,33.7,9s9.9-.5,15.5-1.2c9-1,11.6-.9,20.5.6,8.8,1.6,12.1,2.8,22.2,8,13.7,7,23.4,15.3,31,26.4,5.9,8.6,16.3,20.5,24.8,28.2,3.7,3.3,8.4,8.4,10.5,11.3,2,2.9,4.2,5.5,4.8,5.9.5.4,3.5.8,6.6.8,5.3,0,5.6-.2,7.1-3.3,2.4-4.9,16.8-21.4,25.5-29,7.3-6.4,17.1-12.8,32.3-20.9,11.2-6,22.1-9.7,32.1-10.8,5.2-.6,13-1.5,17.4-2,5.4-.7,10.1-.6,14.5.1,7.2,1.2,28.1.5,36.9-1.2,5.7-1.2,22.8-7.7,32.1-12.4,7-3.5,23.8-14.7,29.5-19.7,2.5-2.2,5-3.6,5.6-3.2,1.9,1.1.4,15-2.5,22.9-10.5,29.5-26.7,64.2-36.4,78-9.1,13-32.5,38.6-40.9,44.8-11.1,8.3-32.7,22.3-39.8,25.9-12.1,6.2-44,19.8-49.7,21.2-4,.9-21,9-23.7,11.3-2.1,1.8-2.5,3.1-3.3,13.4-1.5,18.2.6,30.9,9.2,55.6,3.2,9.1,6.5,15.9,12,24.8,2,3.3,7.9,14.1,12.9,24,5.1,9.9,10.3,19.4,11.7,21.2l2.5,3.3,114.7-.2,114.7-.3V104.4h-19c-10.4,0-35.9,0-56.6.2h0Z"/>
    <path class="cls-2" d="M612.5,759.9c-6,1-9.9,3.1-13.6,7.4-4.2,4.7-5.6,9.6-5.7,19.1,0,11.9,1.1,14.4,13.5,26.8s11.1,11.8,11.5,12.9c1.8,5.7-9.1,8.1-15.6,3.3-3.8-2.8-5.8-3.1-8.5-1.1-1.5,1.1-1.9,2.9-2.1,11-.2,7.4,0,10,1.2,11.1,2.7,2.6,9.5,3.7,21.4,3.3,10.4-.3,12-.6,16.8-3.2,9.3-5.2,13.4-14.7,11.9-27.7-1-8-3.5-11.8-14.9-23-8.1-7.9-10.8-11.3-10.8-13.1,0-4.1,2.2-5.2,9.3-4.4,7.9.9,9.8.9,10.7,0,1.4-1.6,2-18,.7-19.7-2.4-3.2-14.7-4.5-25.8-2.6h0Z"/>
    <path class="cls-2" d="M178.2,762.2c-1.6,1.6-2.7,4.4-3.5,9.3-.7,3.8-2.1,11.6-3.1,17.4-5.8,31.6-10,61.3-8.9,62.6,1.5,1.9,20.2,2,21.6,0,.6-.6,1.3-3.6,1.6-6.6.4-3,1.1-5.9,1.7-6.5,1.1-1.1,11.3-1.1,13,0,.5.3,1.2,3.4,1.5,7,.9,7.7.8,7.7,13.9,7.3,11.7-.4,11.6-.3,8.8-15.5-1.2-6.5-2.4-14.3-2.7-17.3-.6-5.2-4.5-28.7-8.1-48.2-.9-4.8-2.1-9.2-2.8-9.6-.6-.5-7.7-1.2-15.9-1.6-14.5-.7-14.8-.6-17.1,1.7h0ZM197.4,799.9c1.9,12.8,1.4,14.5-3.9,14.5s-3.4-.3-3.7-3.2,2-17.7,3.4-22.7c1.2-3.7,2.7.3,4.2,11.4Z"/>
    <path class="cls-2" d="M232.8,761.5c-1.5,1.1-1.7,4.6-1.6,38.1.2,45.2.2,45.4,12.9,51.4,5.3,2.6,7.1,2.9,15.6,2.9s11.2-.6,14.4-1.7c6.5-2.2,12.8-8.5,14.3-14.3,1.6-5.8,2.3-74.5.8-76s-5.6-1-11.3-1-10.5.9-10.9,2.6c-.4,1.5-.7,16.5-.8,33.4-.1,28.8-.2,30.9-2,32.9-2.5,2.7-7.2,2.8-8.6,0-.7-1.4-1-12.9-.9-34.6,0-17.9-.3-33-.7-33.4-1.6-1.4-19.4-1.7-21.2-.4h0Z"/>
    <path class="cls-2" d="M300.3,761.1c-1.5,1.2-1.7,5.7-1.9,45.3-.1,24.2.1,44.6.5,45.3,1.1,1.7,41.8,1.7,43.5,0s1.2-4.5,1.2-9.9c0-11.2-.6-11.9-10.4-11.9s-11.1,1.9-11.2-36.2c-.1-26.1-.4-32.2-1.5-32.9-2.2-1.4-18.3-1.1-20.2.3h0Z"/>
    <path class="cls-2" d="M362,761.4c-3,2.1-4.9,10.5-12,55.5-1.4,9.1-3.3,20.3-4,24.9-1.9,11-1.8,11.1,10.5,11.1s10.2-.4,10.8-.8c.7-.5,1.6-3.6,1.9-7.1.8-7.3,2.2-8.4,10-7.3,5.3.8,6.1,2,6.3,9.3.1,5.4,1.5,6,12.6,5.7,7.8-.2,10-.6,10.8-2,.8-1.1.5-5.1-1.1-14-1.2-6.7-2.4-15.2-2.8-18.8-.3-3.6-1.2-9.7-2-13.5-.8-3.9-2.8-14.6-4.4-23.9-1.5-9.3-3.4-17.4-4.2-18.1-.8-.8-6.4-1.5-15.8-1.9-12-.5-14.9-.4-16.6.9h0ZM380.7,801.1c1.5,12.3.8,14.1-4.5,13.6-2.7-.3-3.1-.7-3.4-3.6-.4-3.7,2.5-19.6,4.1-22.7.7-1.3,1.2-1.3,1.7,0,.4,1.1,1.3,6.8,2.1,12.7h0Z"/>
    <path class="cls-2" d="M444.8,760.8c-1.1.7-1.4,9.1-1.3,45.6.1,24.7.4,45.2.7,45.7.6.9,18.4,1.1,20.8.2,1.4-.5,1.6-2.9,1.6-16.3s.3-18,.6-20.8l.7-5.3,5.9,10.5c5.1,8.9,6.4,10.5,8.4,10.5s2.8-.4,9.5-15.9c1.1-2.4,2.2-4.1,2.6-3.7s.6,9.3.5,20c-.2,15.5.1,19.6,1.2,20.5.9.8,5,1.1,11.7.9l10.4-.3.5-45c.3-24.9,0-45.6-.4-46.3-.9-1.3-19.2-1.7-21.3-.4-.7.4-3.9,6.5-7.2,13.6s-6.4,13.3-6.9,13.8c-1.6,1.6-3.2,0-5.5-5.1-1.1-2.5-3.1-6.3-4.4-8.3-1.2-2.1-3-5.7-3.9-8-.9-2.4-2.4-4.9-3.2-5.6-1.8-1.4-18.9-1.7-21-.3h0Z"/>
    <path class="cls-2" d="M530.3,760.8c-.6.2-1.5.9-1.9,1.5-1.2,1.7-.9,70.5.3,75.5,1.4,6.1,3.9,9.2,10.1,12.7,5.1,2.8,5.8,2.9,17.8,2.9s17.5-1.2,23.2-7.2c6-6.2,6.2-7.6,6.6-45.6.2-19.1,0-35.8-.2-37.2-.6-2.5-.8-2.5-11.1-2.5s-10.5.2-11.5,1.9c-.6,1.2-1,13.6-1,33.3s-.2,31.7-1.6,33.6c-2.2,3.1-6.9,3-9-.3-1.5-2.3-1.6-5.7-.9-34.3.6-26.2.5-32-.6-32.9-1.4-1.1-17.6-2.2-20.2-1.4h0Z"/>
    <path class="cls-2" d="M650.3,761.7c-1.5,1.6-1.7,6.2-1.7,45.1s.2,43.7,1.1,44.7c1.6,2,45.1,2.1,46.7,0,1.6-1.9,1.9-17.7.3-18.6-.7-.5-5.7-1.1-11.2-1.4s-10.6-1.1-11.4-1.7c-1.8-1.5-2-11.1-.3-12.8s4.4-1.2,9.6-1.2c11.9,0,12.2-.3,12.2-10.4s-.4-8.7-1.3-9.5c-.8-.6-5.2-1.1-9.8-1.2-10.2,0-11.9-1.2-11.9-7.5s1.5-6.4,12.7-6.4,9.3-.4,10.1-1.2c1.5-1.5,1.6-17.4,0-18.3-.6-.4-10.6-.9-22.3-1.1-19.7-.4-21.4-.3-22.9,1.4h.1Z"/>
    <path class="cls-2" d="M707,761.7c-1.1,1.1-1.4,8.1-1.4,38,0,44.8.2,45.1,11.5,51.1,4.6,2.4,5.9,2.6,17.5,2.6s17.5-1.2,23.2-7.2c5.6-5.8,5.9-8.6,6.2-47.3.2-22.1,0-36-.7-36.8-1.3-1.6-19.8-1.7-21.5,0s-1.2,9.5-1.2,32.6-.3,34.4-3.4,36.4c-2.2,1.5-5.6.8-7.2-1.7-1.4-2.1-1.5-6.4-1.3-34.5.2-19.2,0-32.4-.7-32.9-.5-.5-5.1-1.1-10.3-1.3-7.1-.3-9.7,0-10.7,1h0Z"/>
    <path class="cls-2" d="M259.1,897.8c-7.8,1.9-11.5,7.3-11.5,16.9s2.8,11.6,15,21.3c5.7,4.5,9.8,8.5,11,11,5.1,9.8-.5,21.9-10.1,21.9s-11.8-4.3-12.9-12.9c-.7-6.3-3-6.7-3-.5,0,16.2,18.6,22.3,28.3,9.2,2.2-2.9,3.4-11.8,2.3-16.3-.9-3.6-6.5-9.5-16.1-17-9.8-7.6-11.9-11.3-11.3-19.2.8-9.3,8.1-14.3,16.1-11,4.6,2,6.9,5.6,7.5,11.8.5,5.1,1.6,6.9,3.4,5.1s-1-11.9-4.4-15.7c-2.4-2.8-8.5-5.8-10.8-5.4-.3,0-1.9.4-3.5.8h0Z"/>
    <path class="cls-2" d="M383.1,898.4c-4.6,1.6-8.1,5.5-9.6,10.5-.6,2.2-.9,12.9-.7,28.2.3,27.5.3,27.4,7.9,32.6,2.8,2,4.4,2.3,9.2,2,6.5-.5,10.1-2.6,13.2-7.9,1.8-3,2-5.6,2.4-23.2.4-24-.3-31.5-3.2-35.8-4.6-6.7-11.8-9.1-19.2-6.4h0ZM395.9,902.1c1,.5,2.7,2.4,3.7,4.1,1.8,2.9,2,5.2,2,28.6s-.1,25.6-2,28.6c-2.6,4.1-6.8,5.9-12.6,5.2-5.4-.6-9-3.5-10.4-8.6-1.3-4.7-1.3-45.5,0-50.2,2.3-8.1,11.5-11.8,19.3-7.7h0Z"/>
    <path class="cls-2" d="M742.3,898.3c-2,.8-4.5,2-5.4,2.7-4.1,3.5-5.7,14.7-2.9,21.2,1.4,3.4,6.3,8.3,16.2,16,9.6,7.5,12.5,14.9,9,23.1-2.9,6.9-10.7,9.6-17.5,6.1-3.1-1.6-6.1-6.9-6.1-10.8s-.3-3.2-.6-4.1c-1.2-3.1-2.4-1.5-2.4,3.1,0,9.5,6.6,16.3,15.6,16.3s18.5-13.6,14.3-24.7c-1.4-3.8-5.9-8.3-15.2-15.5-9.6-7.3-11.7-10.5-11.7-17.6s1.9-10.5,6.4-12.6c4.2-2,5.7-2,10.1-.2,4.4,1.9,6.6,5.4,7.4,11.8.3,3,1.2,5.3,2,5.6,2.2.7,1-11.2-1.5-14.5-4.5-6-11.1-8.2-17.7-5.9h0Z"/>
    <path class="cls-2" d="M173.6,934.3c0,32,.2,36.6,1.5,36.6s1.5-4.4,1.3-36.2c-.2-27.8-.6-36.2-1.5-36.6-1-.3-1.3,7.4-1.3,36.2Z"/>
    <path class="cls-2" d="M201.1,899.2c-.3.6-.4,17-.3,36.2l.3,35,14.8.3c11.7.2,14.8,0,14.5-1s-4-1.4-13.7-1.6l-13.2-.3.3-15.7.3-15.7,8.8-.3c6.8-.2,8.7-.6,8.7-1.7s-1.8-1.5-9-1.5h-9.1l.3-15.8.3-15.7,13.3-.3c10.8-.2,13.2-.5,13.2-1.7s-2.4-1.5-14.5-1.5-14.7.3-15,1.3h0Z"/>
    <path class="cls-2" d="M348.2,898.6c-.3.3-.6,13.8-.6,30s-.3,30.1-1.4,32.7c-4.3,10.2-17.9,10.2-22.2,0-.8-1.9-1.4-6.3-1.4-10s-.3-6.5-1.2-6.2-1.4,2.9-1.6,7.4c-.2,5.6.2,7.7,2,11.3,5.6,10.9,21,10.9,26.6,0,2.1-4.3,2.2-5.3,2.2-34.7s-.4-32.6-2.4-30.6h0Z"/>
    <path class="cls-2" d="M435.6,900.1c-.5,1.3-2.3,8.4-3.9,15.8-1.7,7.4-5,22.7-7.5,33.9-2.6,11.2-4.6,20.5-4.6,20.7s.6.4,1.4.4,2-2.4,3.1-7.5l1.7-7.5h23.6l1.3,7.1c1.1,6.1,2.9,9.3,4.3,7.8.4-.4-4.1-20.8-13.1-59.8-2.8-12.5-4.4-15.3-6.3-10.9ZM440.5,916.6c1.2,6,3.4,16.2,5,22.8s2.6,12.3,2.4,12.7c-.2.5-4.9.8-10.3.8s-10.1-.3-10.3-.8c-.3-.4,1-7.7,2.9-16.2s4.1-18.8,5-22.8c.8-3.9,1.9-7.2,2.3-7.2s1.8,4.8,3,10.7Z"/>
    <path class="cls-2" d="M472.3,898.5c-.4.4-.7,16.9-.7,36.6,0,31.2.2,35.8,1.5,35.8s1.5-4.2,1.5-31.7.4-31.3.9-30.8c.5.6,5.7,13.4,11.5,28.5,12.9,33.3,13.2,34,15.1,34s1.5-4.6,1.5-36.6-.3-36.5-1.2-36.2c-1,.4-1.4,8.1-1.8,32.4-.4,27.5-.7,31.5-1.8,28.9-.7-1.7-4.9-12.2-9.2-23.5-13.4-34.4-14.6-37.4-15.6-37.7-.6-.2-1.3,0-1.7.3h0Z"/>
    <path class="cls-2" d="M555.6,934.4c0,28.9.3,36.6,1.3,36.3.9-.4,1.3-5,1.5-17.7l.2-17.2,6.3.3,6.2.3,6.3,17.2c4.1,11.1,6.9,17.3,7.8,17.3s1.4,0,1.4-.3-2.1-5.9-4.6-12.8c-8.4-22.9-8-21.2-5.9-22.3,10-5.9,13.2-18.4,7.6-29.5-3.2-6.2-6.1-7.5-17.8-7.9l-10.3-.4v36.7h0ZM577.3,903.5c4.1,3,5.7,7.1,5.7,13.9,0,11.5-4.3,15.5-16.9,15.5h-7.5v-32.2l7.9.3c6.1.3,8.6.9,10.8,2.5Z"/>
    <path class="cls-2" d="M613.6,900.1c-.5,1.3-2.5,9.5-4.5,18.3-1.9,8.8-5.3,24.1-7.5,33.9s-4,18.1-4,18.3.6.3,1.4.3c1.6,0,1.9-.8,3.6-9.3l1.1-5.7h23.7l1.3,7.1c1.1,6.3,2.9,9.3,4.5,7.7.2-.3-.7-5.2-2-10.9-1.4-5.7-4.8-20.5-7.6-32.9-6.4-28.5-6.3-28.3-7.8-28.8s-1.6.7-2.2,2h0ZM621,928.1c2.7,12.3,4.9,22.7,5,23.3s-4,1-10.4,1-10.5-.3-10.4-1.5c0-1.3,7.6-36.7,9.1-42.8.3-1.2.8-2.2,1.2-2.2s2.8,10,5.5,22.2h0Z"/>
    <path class="cls-2" d="M650.1,900.1c-.3,1.3-.4,17.6-.3,36.3.3,29.4.5,34,1.8,34s1.6-4.4,2-31.3l.5-31.4,6,14.2c3.3,7.8,6.5,14.2,7,14.2,1.3,0,2.5-2.2,8.8-17.2l5.2-12.5.3,32.2c.2,27.9.4,32.3,1.7,32.3s1.5-4.6,1.3-36.3c-.3-29.5-.5-36.2-1.6-36.2s-4,6.3-7.7,15c-3.5,8.2-6.7,15.6-7.2,16.3-.6.9-3.1-4-7.8-14.9-3.9-8.9-7.5-16.4-8.2-16.6-.7-.3-1.5.6-1.8,1.9Z"/>
    <path class="cls-2" d="M709.2,898.6c-.3.3-.6,16.8-.6,36.5,0,31.2.2,35.8,1.5,35.8s1.5-4.7,1.5-35.9-.4-36.2-.9-36.5c-.4-.3-1.1-.3-1.5,0h0Z"/>
  </g>
  <g id="beige" class="cls-6">
    <path class="cls-5" d="M689.5,104.6l-37.7.3-29.3,35.3c-43,51.7-91.8,110.1-112.8,135.2-10.1,12.1-27.9,33.4-39.4,47.2-11.5,13.9-21.3,25.3-21.8,25.3s-7.9-10.4-16.6-23c-8.7-12.7-23.5-34.2-32.8-47.8-30.7-44.5-56.5-82-85.6-124.7-15.8-23.1-29.7-43.2-30.9-44.8l-2.2-2.7h-114.8l-.8,2.2c-.4,1.3-.7,142.5-.7,313.8v311.5h239l.6-19.5c.4-11.4,1.3-23,2.3-28,9.8-50.7,11.4-69.5,7.2-83.5-2.5-8.1-11.8-17.6-22.5-22.9-4.7-2.4-9.7-4.7-11.1-5.1s-6.1-2.5-10.5-4.6c-4.4-2-13.9-6.4-21.2-9.7-13-5.9-16-7.9-29.8-19.6-16-13.7-29.8-31.8-42-55.1-3.7-7.2-7.9-14.5-9.2-16.3-2.8-3.7-8.4-15.7-11.9-25.3-6-16.6-8.2-26.3-9.8-43.4-2.6-29.3-2.9-35.5-1.3-35.5s4.6,3.7,8.3,8.2c9.5,11.5,22.9,24.4,28.9,27.8,6.2,3.5,26.6,9,33.7,9s9.9-.5,15.5-1.2c9-1,11.6-.9,20.5.6,8.8,1.6,12.1,2.8,22.2,8,13.7,7,23.4,15.3,31,26.4,5.9,8.6,16.3,20.5,24.8,28.2,3.7,3.3,8.4,8.4,10.5,11.3,2,2.9,4.2,5.5,4.8,5.9.5.4,3.5.8,6.6.8,5.3,0,5.6-.2,7.1-3.3,2.4-4.9,16.8-21.4,25.5-29,7.3-6.4,17.1-12.8,32.3-20.9,11.2-6,22.1-9.7,32.1-10.8,5.2-.6,13-1.5,17.4-2,5.4-.7,10.1-.6,14.5.1,7.2,1.2,28.1.5,36.9-1.2,5.7-1.2,22.8-7.7,32.1-12.4,7-3.5,23.8-14.7,29.5-19.7,2.5-2.2,5-3.6,5.6-3.2,1.9,1.1.4,15-2.5,22.9-10.5,29.5-26.7,64.2-36.4,78-9.1,13-32.5,38.6-40.9,44.8-11.1,8.3-32.7,22.3-39.8,25.9-12.1,6.2-44,19.8-49.7,21.2-4,.9-21,9-23.7,11.3-2.1,1.8-2.5,3.1-3.3,13.4-1.5,18.2.6,30.9,9.2,55.6,3.2,9.1,6.5,15.9,12,24.8,2,3.3,7.9,14.1,12.9,24,5.1,9.9,10.3,19.4,11.7,21.2l2.5,3.3,114.7-.2,114.7-.3V104.4h-19c-10.4,0-35.9,0-56.6.2h0Z"/>
    <path class="cls-5" d="M612.5,759.9c-6,1-9.9,3.1-13.6,7.4-4.2,4.7-5.6,9.6-5.7,19.1,0,11.9,1.1,14.4,13.5,26.8s11.1,11.8,11.5,12.9c1.8,5.7-9.1,8.1-15.6,3.3-3.8-2.8-5.8-3.1-8.5-1.1-1.5,1.1-1.9,2.9-2.1,11-.2,7.4,0,10,1.2,11.1,2.7,2.6,9.5,3.7,21.4,3.3,10.4-.3,12-.6,16.8-3.2,9.3-5.2,13.4-14.7,11.9-27.7-1-8-3.5-11.8-14.9-23-8.1-7.9-10.8-11.3-10.8-13.1,0-4.1,2.2-5.2,9.3-4.4,7.9.9,9.8.9,10.7,0,1.4-1.6,2-18,.7-19.7-2.4-3.2-14.7-4.5-25.8-2.6h0Z"/>
    <path class="cls-5" d="M178.2,762.2c-1.6,1.6-2.7,4.4-3.5,9.3-.7,3.8-2.1,11.6-3.1,17.4-5.8,31.6-10,61.3-8.9,62.6,1.5,1.9,20.2,2,21.6,0,.6-.6,1.3-3.6,1.6-6.6.4-3,1.1-5.9,1.7-6.5,1.1-1.1,11.3-1.1,13,0,.5.3,1.2,3.4,1.5,7,.9,7.7.8,7.7,13.9,7.3,11.7-.4,11.6-.3,8.8-15.5-1.2-6.5-2.4-14.3-2.7-17.3-.6-5.2-4.5-28.7-8.1-48.2-.9-4.8-2.1-9.2-2.8-9.6-.6-.5-7.7-1.2-15.9-1.6-14.5-.7-14.8-.6-17.1,1.7h0ZM197.4,799.9c1.9,12.8,1.4,14.5-3.9,14.5s-3.4-.3-3.7-3.2,2-17.7,3.4-22.7c1.2-3.7,2.7.3,4.2,11.4Z"/>
    <path class="cls-5" d="M232.8,761.5c-1.5,1.1-1.7,4.6-1.6,38.1.2,45.2.2,45.4,12.9,51.4,5.3,2.6,7.1,2.9,15.6,2.9s11.2-.6,14.4-1.7c6.5-2.2,12.8-8.5,14.3-14.3,1.6-5.8,2.3-74.5.8-76s-5.6-1-11.3-1-10.5.9-10.9,2.6c-.4,1.5-.7,16.5-.8,33.4-.1,28.8-.2,30.9-2,32.9-2.5,2.7-7.2,2.8-8.6,0-.7-1.4-1-12.9-.9-34.6,0-17.9-.3-33-.7-33.4-1.6-1.4-19.4-1.7-21.2-.4h0Z"/>
    <path class="cls-5" d="M300.3,761.1c-1.5,1.2-1.7,5.7-1.9,45.3-.1,24.2.1,44.6.5,45.3,1.1,1.7,41.8,1.7,43.5,0s1.2-4.5,1.2-9.9c0-11.2-.6-11.9-10.4-11.9s-11.1,1.9-11.2-36.2c-.1-26.1-.4-32.2-1.5-32.9-2.2-1.4-18.3-1.1-20.2.3h0Z"/>
    <path class="cls-5" d="M362,761.4c-3,2.1-4.9,10.5-12,55.5-1.4,9.1-3.3,20.3-4,24.9-1.9,11-1.8,11.1,10.5,11.1s10.2-.4,10.8-.8c.7-.5,1.6-3.6,1.9-7.1.8-7.3,2.2-8.4,10-7.3,5.3.8,6.1,2,6.3,9.3.1,5.4,1.5,6,12.6,5.7,7.8-.2,10-.6,10.8-2,.8-1.1.5-5.1-1.1-14-1.2-6.7-2.4-15.2-2.8-18.8-.3-3.6-1.2-9.7-2-13.5-.8-3.9-2.8-14.6-4.4-23.9-1.5-9.3-3.4-17.4-4.2-18.1-.8-.8-6.4-1.5-15.8-1.9-12-.5-14.9-.4-16.6.9h0ZM380.7,801.1c1.5,12.3.8,14.1-4.5,13.6-2.7-.3-3.1-.7-3.4-3.6-.4-3.7,2.5-19.6,4.1-22.7.7-1.3,1.2-1.3,1.7,0,.4,1.1,1.3,6.8,2.1,12.7h0Z"/>
    <path class="cls-5" d="M444.8,760.8c-1.1.7-1.4,9.1-1.3,45.6.1,24.7.4,45.2.7,45.7.6.9,18.4,1.1,20.8.2,1.4-.5,1.6-2.9,1.6-16.3s.3-18,.6-20.8l.7-5.3,5.9,10.5c5.1,8.9,6.4,10.5,8.4,10.5s2.8-.4,9.5-15.9c1.1-2.4,2.2-4.1,2.6-3.7s.6,9.3.5,20c-.2,15.5.1,19.6,1.2,20.5.9.8,5,1.1,11.7.9l10.4-.3.5-45c.3-24.9,0-45.6-.4-46.3-.9-1.3-19.2-1.7-21.3-.4-.7.4-3.9,6.5-7.2,13.6s-6.4,13.3-6.9,13.8c-1.6,1.6-3.2,0-5.5-5.1-1.1-2.5-3.1-6.3-4.4-8.3-1.2-2.1-3-5.7-3.9-8-.9-2.4-2.4-4.9-3.2-5.6-1.8-1.4-18.9-1.7-21-.3h0Z"/>
    <path class="cls-5" d="M530.3,760.8c-.6.2-1.5.9-1.9,1.5-1.2,1.7-.9,70.5.3,75.5,1.4,6.1,3.9,9.2,10.1,12.7,5.1,2.8,5.8,2.9,17.8,2.9s17.5-1.2,23.2-7.2c6-6.2,6.2-7.6,6.6-45.6.2-19.1,0-35.8-.2-37.2-.6-2.5-.8-2.5-11.1-2.5s-10.5.2-11.5,1.9c-.6,1.2-1,13.6-1,33.3s-.2,31.7-1.6,33.6c-2.2,3.1-6.9,3-9-.3-1.5-2.3-1.6-5.7-.9-34.3.6-26.2.5-32-.6-32.9-1.4-1.1-17.6-2.2-20.2-1.4h0Z"/>
    <path class="cls-5" d="M650.3,761.7c-1.5,1.6-1.7,6.2-1.7,45.1s.2,43.7,1.1,44.7c1.6,2,45.1,2.1,46.7,0,1.6-1.9,1.9-17.7.3-18.6-.7-.5-5.7-1.1-11.2-1.4s-10.6-1.1-11.4-1.7c-1.8-1.5-2-11.1-.3-12.8s4.4-1.2,9.6-1.2c11.9,0,12.2-.3,12.2-10.4s-.4-8.7-1.3-9.5c-.8-.6-5.2-1.1-9.8-1.2-10.2,0-11.9-1.2-11.9-7.5s1.5-6.4,12.7-6.4,9.3-.4,10.1-1.2c1.5-1.5,1.6-17.4,0-18.3-.6-.4-10.6-.9-22.3-1.1-19.7-.4-21.4-.3-22.9,1.4h.1Z"/>
    <path class="cls-5" d="M707,761.7c-1.1,1.1-1.4,8.1-1.4,38,0,44.8.2,45.1,11.5,51.1,4.6,2.4,5.9,2.6,17.5,2.6s17.5-1.2,23.2-7.2c5.6-5.8,5.9-8.6,6.2-47.3.2-22.1,0-36-.7-36.8-1.3-1.6-19.8-1.7-21.5,0s-1.2,9.5-1.2,32.6-.3,34.4-3.4,36.4c-2.2,1.5-5.6.8-7.2-1.7-1.4-2.1-1.5-6.4-1.3-34.5.2-19.2,0-32.4-.7-32.9-.5-.5-5.1-1.1-10.3-1.3-7.1-.3-9.7,0-10.7,1h0Z"/>
    <path class="cls-5" d="M259.1,897.8c-7.8,1.9-11.5,7.3-11.5,16.9s2.8,11.6,15,21.3c5.7,4.5,9.8,8.5,11,11,5.1,9.8-.5,21.9-10.1,21.9s-11.8-4.3-12.9-12.9c-.7-6.3-3-6.7-3-.5,0,16.2,18.6,22.3,28.3,9.2,2.2-2.9,3.4-11.8,2.3-16.3-.9-3.6-6.5-9.5-16.1-17-9.8-7.6-11.9-11.3-11.3-19.2.8-9.3,8.1-14.3,16.1-11,4.6,2,6.9,5.6,7.5,11.8.5,5.1,1.6,6.9,3.4,5.1s-1-11.9-4.4-15.7c-2.4-2.8-8.5-5.8-10.8-5.4-.3,0-1.9.4-3.5.8h0Z"/>
    <path class="cls-5" d="M383.1,898.4c-4.6,1.6-8.1,5.5-9.6,10.5-.6,2.2-.9,12.9-.7,28.2.3,27.5.3,27.4,7.9,32.6,2.8,2,4.4,2.3,9.2,2,6.5-.5,10.1-2.6,13.2-7.9,1.8-3,2-5.6,2.4-23.2.4-24-.3-31.5-3.2-35.8-4.6-6.7-11.8-9.1-19.2-6.4h0ZM395.9,902.1c1,.5,2.7,2.4,3.7,4.1,1.8,2.9,2,5.2,2,28.6s-.1,25.6-2,28.6c-2.6,4.1-6.8,5.9-12.6,5.2-5.4-.6-9-3.5-10.4-8.6-1.3-4.7-1.3-45.5,0-50.2,2.3-8.1,11.5-11.8,19.3-7.7h0Z"/>
    <path class="cls-5" d="M742.3,898.3c-2,.8-4.5,2-5.4,2.7-4.1,3.5-5.7,14.7-2.9,21.2,1.4,3.4,6.3,8.3,16.2,16,9.6,7.5,12.5,14.9,9,23.1-2.9,6.9-10.7,9.6-17.5,6.1-3.1-1.6-6.1-6.9-6.1-10.8s-.3-3.2-.6-4.1c-1.2-3.1-2.4-1.5-2.4,3.1,0,9.5,6.6,16.3,15.6,16.3s18.5-13.6,14.3-24.7c-1.4-3.8-5.9-8.3-15.2-15.5-9.6-7.3-11.7-10.5-11.7-17.6s1.9-10.5,6.4-12.6c4.2-2,5.7-2,10.1-.2,4.4,1.9,6.6,5.4,7.4,11.8.3,3,1.2,5.3,2,5.6,2.2.7,1-11.2-1.5-14.5-4.5-6-11.1-8.2-17.7-5.9h0Z"/>
    <path class="cls-5" d="M173.6,934.3c0,32,.2,36.6,1.5,36.6s1.5-4.4,1.3-36.2c-.2-27.8-.6-36.2-1.5-36.6-1-.3-1.3,7.4-1.3,36.2Z"/>
    <path class="cls-5" d="M201.1,899.2c-.3.6-.4,17-.3,36.2l.3,35,14.8.3c11.7.2,14.8,0,14.5-1s-4-1.4-13.7-1.6l-13.2-.3.3-15.7.3-15.7,8.8-.3c6.8-.2,8.7-.6,8.7-1.7s-1.8-1.5-9-1.5h-9.1l.3-15.8.3-15.7,13.3-.3c10.8-.2,13.2-.5,13.2-1.7s-2.4-1.5-14.5-1.5-14.7.3-15,1.3h0Z"/>
    <path class="cls-5" d="M348.2,898.6c-.3.3-.6,13.8-.6,30s-.3,30.1-1.4,32.7c-4.3,10.2-17.9,10.2-22.2,0-.8-1.9-1.4-6.3-1.4-10s-.3-6.5-1.2-6.2-1.4,2.9-1.6,7.4c-.2,5.6.2,7.7,2,11.3,5.6,10.9,21,10.9,26.6,0,2.1-4.3,2.2-5.3,2.2-34.7s-.4-32.6-2.4-30.6h0Z"/>
    <path class="cls-5" d="M435.6,900.1c-.5,1.3-2.3,8.4-3.9,15.8-1.7,7.4-5,22.7-7.5,33.9-2.6,11.2-4.6,20.5-4.6,20.7s.6.4,1.4.4,2-2.4,3.1-7.5l1.7-7.5h23.6l1.3,7.1c1.1,6.1,2.9,9.3,4.3,7.8.4-.4-4.1-20.8-13.1-59.8-2.8-12.5-4.4-15.3-6.3-10.9ZM440.5,916.6c1.2,6,3.4,16.2,5,22.8s2.6,12.3,2.4,12.7c-.2.5-4.9.8-10.3.8s-10.1-.3-10.3-.8c-.3-.4,1-7.7,2.9-16.2s4.1-18.8,5-22.8c.8-3.9,1.9-7.2,2.3-7.2s1.8,4.8,3,10.7Z"/>
    <path class="cls-5" d="M472.3,898.5c-.4.4-.7,16.9-.7,36.6,0,31.2.2,35.8,1.5,35.8s1.5-4.2,1.5-31.7.4-31.3.9-30.8c.5.6,5.7,13.4,11.5,28.5,12.9,33.3,13.2,34,15.1,34s1.5-4.6,1.5-36.6-.3-36.5-1.2-36.2c-1,.4-1.4,8.1-1.8,32.4-.4,27.5-.7,31.5-1.8,28.9-.7-1.7-4.9-12.2-9.2-23.5-13.4-34.4-14.6-37.4-15.6-37.7-.6-.2-1.3,0-1.7.3h0Z"/>
    <path class="cls-5" d="M555.6,934.4c0,28.9.3,36.6,1.3,36.3.9-.4,1.3-5,1.5-17.7l.2-17.2,6.3.3,6.2.3,6.3,17.2c4.1,11.1,6.9,17.3,7.8,17.3s1.4,0,1.4-.3-2.1-5.9-4.6-12.8c-8.4-22.9-8-21.2-5.9-22.3,10-5.9,13.2-18.4,7.6-29.5-3.2-6.2-6.1-7.5-17.8-7.9l-10.3-.4v36.7h0ZM577.3,903.5c4.1,3,5.7,7.1,5.7,13.9,0,11.5-4.3,15.5-16.9,15.5h-7.5v-32.2l7.9.3c6.1.3,8.6.9,10.8,2.5Z"/>
    <path class="cls-5" d="M613.6,900.1c-.5,1.3-2.5,9.5-4.5,18.3-1.9,8.8-5.3,24.1-7.5,33.9s-4,18.1-4,18.3.6.3,1.4.3c1.6,0,1.9-.8,3.6-9.3l1.1-5.7h23.7l1.3,7.1c1.1,6.3,2.9,9.3,4.5,7.7.2-.3-.7-5.2-2-10.9-1.4-5.7-4.8-20.5-7.6-32.9-6.4-28.5-6.3-28.3-7.8-28.8s-1.6.7-2.2,2h0ZM621,928.1c2.7,12.3,4.9,22.7,5,23.3s-4,1-10.4,1-10.5-.3-10.4-1.5c0-1.3,7.6-36.7,9.1-42.8.3-1.2.8-2.2,1.2-2.2s2.8,10,5.5,22.2h0Z"/>
    <path class="cls-5" d="M650.1,900.1c-.3,1.3-.4,17.6-.3,36.3.3,29.4.5,34,1.8,34s1.6-4.4,2-31.3l.5-31.4,6,14.2c3.3,7.8,6.5,14.2,7,14.2,1.3,0,2.5-2.2,8.8-17.2l5.2-12.5.3,32.2c.2,27.9.4,32.3,1.7,32.3s1.5-4.6,1.3-36.3c-.3-29.5-.5-36.2-1.6-36.2s-4,6.3-7.7,15c-3.5,8.2-6.7,15.6-7.2,16.3-.6.9-3.1-4-7.8-14.9-3.9-8.9-7.5-16.4-8.2-16.6-.7-.3-1.5.6-1.8,1.9Z"/>
    <path class="cls-5" d="M709.2,898.6c-.3.3-.6,16.8-.6,36.5,0,31.2.2,35.8,1.5,35.8s1.5-4.7,1.5-35.9-.4-36.2-.9-36.5c-.4-.3-1.1-.3-1.5,0h0Z"/>
  </g>
  <g id="marron">
    <path class="cls-1" d="M770.7,31.8l-51.3.4-39.8,48c-58.5,70.3-124.8,149.7-153.4,183.9-13.7,16.5-37.9,45.4-53.6,64.2-15.6,18.9-29,34.4-29.6,34.4s-10.7-14.1-22.6-31.3c-11.8-17.3-32-46.5-44.6-65-41.7-60.5-76.8-111.5-116.4-169.6-21.5-31.4-40.4-58.7-42-60.9l-3-3.7H58.3l-1.1,3c-.5,1.8-1,193.8-1,426.7v423.6h325l.8-26.5c.5-15.5,1.8-31.3,3.1-38.1,13.3-68.9,15.5-94.5,9.8-113.6-3.4-11-16-23.9-30.6-31.1-6.4-3.3-13.2-6.4-15.1-6.9s-8.3-3.4-14.3-6.3c-6-2.7-18.9-8.7-28.8-13.2-17.7-8-21.8-10.7-40.5-26.7-21.8-18.6-40.5-43.2-57.1-74.9-5-9.8-10.7-19.7-12.5-22.2-3.8-5-11.4-21.4-16.2-34.4-8.2-22.6-11.2-35.8-13.3-59-3.5-39.8-3.9-48.3-1.8-48.3s6.3,5,11.3,11.2c12.9,15.6,31.1,33.2,39.3,37.8,8.4,4.8,36.2,12.2,45.8,12.2s13.5-.7,21.1-1.6c12.2-1.4,15.8-1.2,27.9.8,12,2.2,16.5,3.8,30.2,10.9,18.6,9.5,31.8,20.8,42.2,35.9,8,11.7,22.2,27.9,33.7,38.3,5,4.5,11.4,11.4,14.3,15.4,2.7,3.9,5.7,7.5,6.5,8,.7.5,4.8,1.1,9,1.1,7.2,0,7.6-.3,9.7-4.5,3.3-6.7,22.8-29.1,34.7-39.4,9.9-8.7,23.3-17.4,43.9-28.4,15.2-8.2,30.1-13.2,43.7-14.7,7.1-.8,17.7-2,23.7-2.7,7.3-1,13.7-.8,19.7.1,9.8,1.6,38.2.7,50.2-1.6,7.8-1.6,31-10.5,43.7-16.9,9.5-4.8,32.4-20,40.1-26.8,3.4-3,6.8-4.9,7.6-4.4,2.6,1.5.5,20.4-3.4,31.1-14.3,40.1-36.3,87.3-49.5,106.1-12.4,17.7-44.2,52.5-55.6,60.9-15.1,11.3-44.5,30.3-54.1,35.2-16.5,8.4-59.8,26.9-67.6,28.8-5.4,1.2-28.6,12.2-32.2,15.4-2.9,2.4-3.4,4.2-4.5,18.2-2,24.7.8,42,12.5,75.6,4.4,12.4,8.8,21.6,16.3,33.7,2.7,4.5,10.7,19.2,17.5,32.6,6.9,13.5,14,26.4,15.9,28.8l3.4,4.5,156-.3,156-.4V31.5h-25.8c-14.1,0-48.8,0-77,.3h0Z"/>
    <path class="cls-1" d="M666,922.9c-8.2,1.4-13.5,4.2-18.5,10.1-5.7,6.4-7.6,13.1-7.8,26,0,16.2,1.5,19.6,18.4,36.4,16.9,16.9,15.1,16,15.6,17.5,2.4,7.8-12.4,11-21.2,4.5-5.2-3.8-7.9-4.2-11.6-1.5-2,1.5-2.6,3.9-2.9,15-.3,10.1,0,13.6,1.6,15.1,3.7,3.5,12.9,5,29.1,4.5,14.1-.4,16.3-.8,22.8-4.4,12.6-7.1,18.2-20,16.2-37.7-1.4-10.9-4.8-16-20.3-31.3-11-10.7-14.7-15.4-14.7-17.8,0-5.6,3-7.1,12.6-6,10.7,1.2,13.3,1.2,14.6,0,1.9-2.2,2.7-24.5,1-26.8-3.3-4.4-20-6.1-35.1-3.5h0Z"/>
    <path class="cls-1" d="M75.4,926.1c-2.2,2.2-3.7,6-4.8,12.6-1,5.2-2.9,15.8-4.2,23.7-7.9,43-13.6,83.4-12.1,85.1,2,2.6,27.5,2.7,29.4,0,.8-.8,1.8-4.9,2.2-9,.5-4.1,1.5-8,2.3-8.8,1.5-1.5,15.4-1.5,17.7,0,.7.4,1.6,4.6,2,9.5,1.2,10.5,1.1,10.5,18.9,9.9,15.9-.5,15.8-.4,12-21.1-1.6-8.8-3.3-19.4-3.7-23.5-.8-7.1-6.1-39-11-65.5-1.2-6.5-2.9-12.5-3.8-13.1-.8-.7-10.5-1.6-21.6-2.2-19.7-1-20.1-.8-23.3,2.3h0ZM101.5,977.3c2.6,17.4,1.9,19.7-5.3,19.7s-4.6-.4-5-4.4,2.7-24.1,4.6-30.9c1.6-5,3.7.4,5.7,15.5Z"/>
    <path class="cls-1" d="M149.7,925.1c-2,1.5-2.3,6.3-2.2,51.8.3,61.5.3,61.7,17.5,69.9,7.2,3.5,9.7,3.9,21.2,3.9s15.2-.8,19.6-2.3c8.8-3,17.4-11.6,19.4-19.4,2.2-7.9,3.1-101.3,1.1-103.4s-7.6-1.4-15.4-1.4-14.3,1.2-14.8,3.5c-.5,2-1,22.4-1.1,45.4-.1,39.2-.3,42-2.7,44.7-3.4,3.7-9.8,3.8-11.7,0-1-1.9-1.4-17.5-1.2-47.1,0-24.3-.4-44.9-1-45.4-2.2-1.9-26.4-2.3-28.8-.5h0Z"/>
    <path class="cls-1" d="M241.5,924.6c-2,1.6-2.3,7.8-2.6,61.6-.1,32.9.1,60.7.7,61.6,1.5,2.3,56.8,2.3,59.2,0s1.6-6.1,1.6-13.5c0-15.2-.8-16.2-14.1-16.2s-15.1,2.6-15.2-49.2c-.1-35.5-.5-43.8-2-44.7-3-1.9-24.9-1.5-27.5.4h0Z"/>
    <path class="cls-1" d="M325.4,925c-4.1,2.9-6.7,14.3-16.3,75.5-1.9,12.4-4.5,27.6-5.4,33.9-2.6,15-2.4,15.1,14.3,15.1s13.9-.5,14.7-1.1c1-.7,2.2-4.9,2.6-9.7,1.1-9.9,3-11.4,13.6-9.9,7.2,1.1,8.3,2.7,8.6,12.6.1,7.3,2,8.2,17.1,7.8,10.6-.3,13.6-.8,14.7-2.7,1.1-1.5.7-6.9-1.5-19-1.6-9.1-3.3-20.7-3.8-25.6-.4-4.9-1.6-13.2-2.7-18.4-1.1-5.3-3.8-19.9-6-32.5-2-12.6-4.6-23.7-5.7-24.6-1.1-1.1-8.7-2-21.5-2.6-16.3-.7-20.3-.5-22.6,1.2h0ZM350.8,979c2,16.7,1.1,19.2-6.1,18.5-3.7-.4-4.2-1-4.6-4.9-.5-5,3.4-26.7,5.6-30.9,1-1.8,1.6-1.8,2.3,0,.5,1.5,1.8,9.2,2.9,17.3h0Z"/>
    <path class="cls-1" d="M438,924.2c-1.5,1-1.9,12.4-1.8,62,.1,33.6.5,61.5,1,62.1.8,1.2,25,1.5,28.3.3,1.9-.7,2.2-3.9,2.2-22.2s.4-24.5.8-28.3l1-7.2,8,14.3c6.9,12.1,8.7,14.3,11.4,14.3s3.8-.5,12.9-21.6c1.5-3.3,3-5.6,3.5-5s.8,12.6.7,27.2c-.3,21.1.1,26.7,1.6,27.9,1.2,1.1,6.8,1.5,15.9,1.2l14.1-.4.7-61.2c.4-33.9,0-62-.5-63-1.2-1.8-26.1-2.3-29-.5-1,.5-5.3,8.8-9.8,18.5s-8.7,18.1-9.4,18.8c-2.2,2.2-4.4,0-7.5-6.9-1.5-3.4-4.2-8.6-6-11.3-1.6-2.9-4.1-7.8-5.3-10.9-1.2-3.3-3.3-6.7-4.4-7.6-2.4-1.9-25.7-2.3-28.6-.4h0Z"/>
    <path class="cls-1" d="M554.2,924.2c-.8.3-2,1.2-2.6,2-1.6,2.3-1.2,95.9.4,102.7,1.9,8.3,5.3,12.5,13.7,17.3,6.9,3.8,7.9,3.9,24.2,3.9s23.8-1.6,31.5-9.8c8.2-8.4,8.4-10.3,9-62,.3-26,0-48.7-.3-50.6-.8-3.4-1.1-3.4-15.1-3.4s-14.3.3-15.6,2.6c-.8,1.6-1.4,18.5-1.4,45.3s-.3,43.1-2.2,45.7c-3,4.2-9.4,4.1-12.2-.4-2-3.1-2.2-7.8-1.2-46.6.8-35.6.7-43.5-.8-44.7-1.9-1.5-23.9-3-27.5-1.9h0Z"/>
    <path class="cls-1" d="M717.4,925.4c-2,2.2-2.3,8.4-2.3,61.3s.3,59.4,1.5,60.8c2.2,2.7,61.3,2.9,63.5,0,2.2-2.6,2.6-24.1.4-25.3-1-.7-7.8-1.5-15.2-1.9-7.5-.4-14.4-1.5-15.5-2.3-2.4-2-2.7-15.1-.4-17.4s6-1.6,13.1-1.6c16.2,0,16.6-.4,16.6-14.1s-.5-11.8-1.8-12.9c-1.1-.8-7.1-1.5-13.3-1.6-13.9,0-16.2-1.6-16.2-10.2s2-8.7,17.3-8.7,12.6-.5,13.7-1.6c2-2,2.2-23.7,0-24.9-.8-.5-14.4-1.2-30.3-1.5-26.8-.5-29.1-.4-31.1,1.9h.1Z"/>
    <path class="cls-1" d="M794.5,925.4c-1.5,1.5-1.9,11-1.9,51.7,0,60.9.3,61.3,15.6,69.5,6.3,3.3,8,3.5,23.8,3.5s23.8-1.6,31.5-9.8c7.6-7.9,8-11.7,8.4-64.3.3-30.1,0-49-1-50-1.8-2.2-26.9-2.3-29.2,0s-1.6,12.9-1.6,44.3-.4,46.8-4.6,49.5c-3,2-7.6,1.1-9.8-2.3-1.9-2.9-2-8.7-1.8-46.9.3-26.1,0-44.1-1-44.7-.7-.7-6.9-1.5-14-1.8-9.7-.4-13.2,0-14.6,1.4h0Z"/>
    <path class="cls-3" d="M259.1,897.8c-7.8,1.9-11.5,7.3-11.5,16.9s2.8,11.6,15,21.3c5.7,4.5,9.8,8.5,11,11,5.1,9.8-.5,21.9-10.1,21.9s-11.8-4.3-12.9-12.9c-.7-6.3-3-6.7-3-.5,0,16.2,18.6,22.3,28.3,9.2,2.2-2.9,3.4-11.8,2.3-16.3-.9-3.6-6.5-9.5-16.1-17-9.8-7.6-11.9-11.3-11.3-19.2.8-9.3,8.1-14.3,16.1-11,4.6,2,6.9,5.6,7.5,11.8.5,5.1,1.6,6.9,3.4,5.1s-1-11.9-4.4-15.7c-2.4-2.8-8.5-5.8-10.8-5.4-.3,0-1.9.4-3.5.8h0Z"/>
    <path class="cls-3" d="M383.1,898.4c-4.6,1.6-8.1,5.5-9.6,10.5-.6,2.2-.9,12.9-.7,28.2.3,27.5.3,27.4,7.9,32.6,2.8,2,4.4,2.3,9.2,2,6.5-.5,10.1-2.6,13.2-7.9,1.8-3,2-5.6,2.4-23.2.4-24-.3-31.5-3.2-35.8-4.6-6.7-11.8-9.1-19.2-6.4h0ZM395.9,902.1c1,.5,2.7,2.4,3.7,4.1,1.8,2.9,2,5.2,2,28.6s-.1,25.6-2,28.6c-2.6,4.1-6.8,5.9-12.6,5.2-5.4-.6-9-3.5-10.4-8.6-1.3-4.7-1.3-45.5,0-50.2,2.3-8.1,11.5-11.8,19.3-7.7h0Z"/>
    <path class="cls-3" d="M742.3,898.3c-2,.8-4.5,2-5.4,2.7-4.1,3.5-5.7,14.7-2.9,21.2,1.4,3.4,6.3,8.3,16.2,16,9.6,7.5,12.5,14.9,9,23.1-2.9,6.9-10.7,9.6-17.5,6.1-3.1-1.6-6.1-6.9-6.1-10.8s-.3-3.2-.6-4.1c-1.2-3.1-2.4-1.5-2.4,3.1,0,9.5,6.6,16.3,15.6,16.3s18.5-13.6,14.3-24.7c-1.4-3.8-5.9-8.3-15.2-15.5-9.6-7.3-11.7-10.5-11.7-17.6s1.9-10.5,6.4-12.6c4.2-2,5.7-2,10.1-.2,4.4,1.9,6.6,5.4,7.4,11.8.3,3,1.2,5.3,2,5.6,2.2.7,1-11.2-1.5-14.5-4.5-6-11.1-8.2-17.7-5.9h0Z"/>
    <path class="cls-3" d="M173.6,934.3c0,32,.2,36.6,1.5,36.6s1.5-4.4,1.3-36.2c-.2-27.8-.6-36.2-1.5-36.6-1-.3-1.3,7.4-1.3,36.2Z"/>
    <path class="cls-3" d="M201.1,899.2c-.3.6-.4,17-.3,36.2l.3,35,14.8.3c11.7.2,14.8,0,14.5-1s-4-1.4-13.7-1.6l-13.2-.3.3-15.7.3-15.7,8.8-.3c6.8-.2,8.7-.6,8.7-1.7s-1.8-1.5-9-1.5h-9.1l.3-15.8.3-15.7,13.3-.3c10.8-.2,13.2-.5,13.2-1.7s-2.4-1.5-14.5-1.5-14.7.3-15,1.3h0Z"/>
    <path class="cls-3" d="M348.2,898.6c-.3.3-.6,13.8-.6,30s-.3,30.1-1.4,32.7c-4.3,10.2-17.9,10.2-22.2,0-.8-1.9-1.4-6.3-1.4-10s-.3-6.5-1.2-6.2-1.4,2.9-1.6,7.4c-.2,5.6.2,7.7,2,11.3,5.6,10.9,21,10.9,26.6,0,2.1-4.3,2.2-5.3,2.2-34.7s-.4-32.6-2.4-30.6h0Z"/>
    <path class="cls-3" d="M435.6,900.1c-.5,1.3-2.3,8.4-3.9,15.8-1.7,7.4-5,22.7-7.5,33.9-2.6,11.2-4.6,20.5-4.6,20.7s.6.4,1.4.4,2-2.4,3.1-7.5l1.7-7.5h23.6l1.3,7.1c1.1,6.1,2.9,9.3,4.3,7.8.4-.4-4.1-20.8-13.1-59.8-2.8-12.5-4.4-15.3-6.3-10.9ZM440.5,916.6c1.2,6,3.4,16.2,5,22.8s2.6,12.3,2.4,12.7c-.2.5-4.9.8-10.3.8s-10.1-.3-10.3-.8c-.3-.4,1-7.7,2.9-16.2s4.1-18.8,5-22.8c.8-3.9,1.9-7.2,2.3-7.2s1.8,4.8,3,10.7Z"/>
    <path class="cls-3" d="M472.3,898.5c-.4.4-.7,16.9-.7,36.6,0,31.2.2,35.8,1.5,35.8s1.5-4.2,1.5-31.7.4-31.3.9-30.8c.5.6,5.7,13.4,11.5,28.5,12.9,33.3,13.2,34,15.1,34s1.5-4.6,1.5-36.6-.3-36.5-1.2-36.2c-1,.4-1.4,8.1-1.8,32.4-.4,27.5-.7,31.5-1.8,28.9-.7-1.7-4.9-12.2-9.2-23.5-13.4-34.4-14.6-37.4-15.6-37.7-.6-.2-1.3,0-1.7.3h0Z"/>
    <path class="cls-3" d="M555.6,934.4c0,28.9.3,36.6,1.3,36.3.9-.4,1.3-5,1.5-17.7l.2-17.2,6.3.3,6.2.3,6.3,17.2c4.1,11.1,6.9,17.3,7.8,17.3s1.4,0,1.4-.3-2.1-5.9-4.6-12.8c-8.4-22.9-8-21.2-5.9-22.3,10-5.9,13.2-18.4,7.6-29.5-3.2-6.2-6.1-7.5-17.8-7.9l-10.3-.4v36.7h0ZM577.3,903.5c4.1,3,5.7,7.1,5.7,13.9,0,11.5-4.3,15.5-16.9,15.5h-7.5v-32.2l7.9.3c6.1.3,8.6.9,10.8,2.5Z"/>
    <path class="cls-3" d="M613.6,900.1c-.5,1.3-2.5,9.5-4.5,18.3-1.9,8.8-5.3,24.1-7.5,33.9s-4,18.1-4,18.3.6.3,1.4.3c1.6,0,1.9-.8,3.6-9.3l1.1-5.7h23.7l1.3,7.1c1.1,6.3,2.9,9.3,4.5,7.7.2-.3-.7-5.2-2-10.9-1.4-5.7-4.8-20.5-7.6-32.9-6.4-28.5-6.3-28.3-7.8-28.8s-1.6.7-2.2,2h0ZM621,928.1c2.7,12.3,4.9,22.7,5,23.3s-4,1-10.4,1-10.5-.3-10.4-1.5c0-1.3,7.6-36.7,9.1-42.8.3-1.2.8-2.2,1.2-2.2s2.8,10,5.5,22.2h0Z"/>
    <path class="cls-3" d="M650.1,900.1c-.3,1.3-.4,17.6-.3,36.3.3,29.4.5,34,1.8,34s1.6-4.4,2-31.3l.5-31.4,6,14.2c3.3,7.8,6.5,14.2,7,14.2,1.3,0,2.5-2.2,8.8-17.2l5.2-12.5.3,32.2c.2,27.9.4,32.3,1.7,32.3s1.5-4.6,1.3-36.3c-.3-29.5-.5-36.2-1.6-36.2s-4,6.3-7.7,15c-3.5,8.2-6.7,15.6-7.2,16.3-.6.9-3.1-4-7.8-14.9-3.9-8.9-7.5-16.4-8.2-16.6-.7-.3-1.5.6-1.8,1.9Z"/>
    <path class="cls-3" d="M709.2,898.6c-.3.3-.6,16.8-.6,36.5,0,31.2.2,35.8,1.5,35.8s1.5-4.7,1.5-35.9-.4-36.2-.9-36.5c-.4-.3-1.1-.3-1.5,0h0Z"/>
  </g>
</svg>